<?xml version="1.0" encoding="utf-8"?>
<!-- Generator: Adobe Illustrator 25.2.3, SVG Export Plug-In . SVG Version: 6.00 Build 0)  -->
<svg version="1.1" id="Lager_1" xmlns="http://www.w3.org/2000/svg" xmlns:xlink="http://www.w3.org/1999/xlink" x="0px" y="0px"
	 viewBox="0 0 800 342" style="enable-background:new 0 0 800 342;" xml:space="preserve">
<style type="text/css">
	.st0{fill:#4ED1A1;stroke:#404040;stroke-width:4;stroke-linecap:round;stroke-linejoin:round;stroke-miterlimit:10;}
	.st1{fill:#B3E3FF;stroke:#404040;stroke-width:4;stroke-miterlimit:10;}
	.st2{fill:none;stroke:#404040;stroke-width:4;stroke-linecap:round;stroke-linejoin:round;stroke-miterlimit:10;}
	.st3{fill:#FFFFFF;stroke:#404040;stroke-width:4;stroke-linecap:round;stroke-linejoin:round;stroke-miterlimit:10;}
	.st4{fill:#FFFFFF;stroke:#59AFE1;stroke-width:4;stroke-miterlimit:10;}
	.st5{fill:#FFFFFF;stroke:#404040;stroke-width:4;stroke-miterlimit:10;}
	.st6{fill:#B18BE8;stroke:#404040;stroke-width:4;stroke-linecap:round;stroke-linejoin:round;stroke-miterlimit:10;}
	.st7{fill:#404040;}
	.st8{fill:#414141;}
</style>
<path class="st0" d="M485.3,140.4h177.2v108.3H485.3V140.4z"/>
<path class="st1" d="M502.1,157.1h143.8v74.8H502.1L502.1,157.1z"/>
<path class="st2" d="M520.3,194.7h-11.2"/>
<path class="st0" d="M671.3,298.3H476.5l8.8-37.9h177.2L671.3,298.3z M520.3,172.7h107.3v44H520.3V172.7z"/>
<circle class="st3" cx="573.9" cy="194.9" r="8.8"/>
<circle class="st3" cx="543.1" cy="194.9" r="8.8"/>
<path class="st2" d="M638.8,194.7h-11.2 M316.7,194.7h50.4c10.2,0,18.5-8.3,18.5-18.5v-87 M135.8,194.7H80.2
	c-10.2,0-18.5-8.3-18.5-18.5v-51.8 M483,194.7h-50.4c-10.2,0-18.5-8.3-18.5-18.5v-87 M665.3,194.7h55.6c10.2,0,18.5-8.3,18.5-18.5
	v-51.8"/>
<circle class="st3" cx="604.7" cy="194.9" r="8.8"/>
<path id="repo1_214_" class="st1" d="M33.7,99.9c0-5.5,12.5-10,28-10s28,4.4,28,10 M33.7,99.9v12.4c0,1.3,0.8,2.6,2.1,3.8
	c4.2,3.6,14.2,6.2,25.9,6.2s21.7-2.6,25.9-6.2c1.3-1.2,2.1-2.4,2.1-3.8V99.9"/>
<path class="st4" d="M89.8,99.9c0,5.5-12.5,10-28,10s-28-4.4-28-10c0-5.5,12.5-10,28-10S89.8,94.3,89.8,99.9z"/>
<path id="repo1_213_" class="st1" d="M33.7,87.5c0-5.5,12.5-10,28-10s28,4.4,28,10 M33.7,87.5v12.4c0,1.3,0.8,2.6,2.1,3.8
	c4.2,3.6,14.2,6.2,25.9,6.2s21.7-2.6,25.9-6.2c1.3-1.2,2.1-2.4,2.1-3.8V87.5"/>
<path class="st4" d="M89.8,87.5c0,5.5-12.5,10-28,10s-28-4.4-28-10c0-5.5,12.5-10,28-10S89.8,81.9,89.8,87.5z"/>
<path id="repo1_212_" class="st1" d="M33.7,75.1c0-5.5,12.5-10,28-10s28,4.4,28,10 M33.7,75.1v12.4c0,1.3,0.8,2.6,2.1,3.8
	c4.2,3.6,14.2,6.2,25.9,6.2s21.7-2.6,25.9-6.2c1.3-1.2,2.1-2.4,2.1-3.8V75.1"/>
<path class="st5" d="M89.8,75.1c0,5.5-12.5,10-28,10s-28-4.4-28-10c0-5.5,12.5-10,28-10S89.8,69.5,89.8,75.1z"/>
<path id="repo1_205_" class="st1" d="M710.2,99.9c0-5.5,12.5-10,28-10s28,4.4,28,10 M710.2,99.9v12.4c0,1.3,0.8,2.6,2.1,3.8
	c4.2,3.6,14.2,6.2,25.9,6.2s21.7-2.6,25.9-6.2c1.3-1.2,2.1-2.4,2.1-3.8V99.9"/>
<path class="st4" d="M766.3,99.9c0,5.5-12.5,10-28,10s-28-4.4-28-10c0-5.5,12.5-10,28-10C753.7,89.9,766.3,94.3,766.3,99.9z"/>
<path id="repo1_204_" class="st1" d="M710.2,87.5c0-5.5,12.5-10,28-10s28,4.4,28,10 M710.2,87.5v12.4c0,1.3,0.8,2.6,2.1,3.8
	c4.2,3.6,14.2,6.2,25.9,6.2s21.7-2.6,25.9-6.2c1.3-1.2,2.1-2.4,2.1-3.8V87.5"/>
<path class="st4" d="M766.3,87.5c0,5.5-12.5,10-28,10s-28-4.4-28-10c0-5.5,12.5-10,28-10C753.7,77.5,766.3,81.9,766.3,87.5z"/>
<path id="repo1_203_" class="st1" d="M710.2,75.1c0-5.5,12.5-10,28-10s28,4.4,28,10 M710.2,75.1v12.4c0,1.3,0.8,2.6,2.1,3.8
	c4.2,3.6,14.2,6.2,25.9,6.2s21.7-2.6,25.9-6.2c1.3-1.2,2.1-2.4,2.1-3.8V75.1"/>
<path class="st5" d="M766.3,75.1c0,5.5-12.5,10-28,10s-28-4.4-28-10c0-5.5,12.5-10,28-10C753.7,65.1,766.3,69.5,766.3,75.1z"/>
<path class="st6" d="M137.6,140.4h177.2v108.3H137.6L137.6,140.4z"/>
<path class="st1" d="M154.3,157.1h143.8v74.8H154.3V157.1z"/>
<path class="st6" d="M323.6,298.3H128.8l8.8-37.9h177.2L323.6,298.3z M204.2,172.6h44v44h-44V172.6z"/>
<circle class="st3" cx="226.2" cy="194.7" r="8.8"/>
<path class="st2" d="M204.2,194.6h-42.9 M291.1,194.6h-42.9"/>
<circle class="st3" cx="400" cy="50.4" r="43.5"/>
<path class="st2" d="M400,56.7V34.6 M391.6,39.8l8.4-8.4l8.4,8.4 M390.7,47H381c-1.5,0-2.8,1.2-2.8,2.8V62c0,1.5,1.2,2.8,2.8,2.8
	h38.1c1.5,0,2.8-1.2,2.8-2.8V49.8c0-1.5-1.2-2.8-2.8-2.8h-9.7"/>
<path class="st7" d="M154.8,335.8v-8.3l-3.6,8.3h-1.3l-3.6-8.3v8.3h-1.5v-10.6h2l3.7,8.7l3.8-8.7h2v10.6H154.8L154.8,335.8z
	 M161.2,331.7l1.9-0.3c0.4-0.1,0.6-0.3,0.6-0.5c0-0.7-0.5-1.3-1.6-1.3c-1,0-1.5,0.6-1.6,1.5l-1.4-0.3c0.2-1.4,1.4-2.3,3-2.3
	c2.2,0,3,1.2,3,2.6v3.6c0,0.6,0.1,1,0.1,1.2h-1.4c0-0.2-0.1-0.5-0.1-1c-0.3,0.5-1,1.2-2.3,1.2c-1.5,0-2.4-1-2.4-2.2
	C159,332.6,160,331.8,161.2,331.7L161.2,331.7z M163.7,332.7v-0.3l-2.2,0.3c-0.6,0.1-1.1,0.4-1.1,1.1c0,0.5,0.4,1,1.2,1
	C162.8,334.8,163.7,334.3,163.7,332.7z M172.1,330h-0.6c-1.2,0-2,0.6-2,2.2v3.6h-1.4v-7.2h1.4v1.3c0.5-1.1,1.4-1.4,2.2-1.4h0.5
	L172.1,330L172.1,330z M174.8,338.8l1.8-3.8l-3.1-6.4h1.6l2.2,5l2.2-5h1.5l-4.7,10.2L174.8,338.8L174.8,338.8z M183.6,325
	c0.6,0,1.1,0.5,1.1,1.3c0,1.9-1.2,2.6-2.1,2.7v-0.7c0.7-0.2,1.1-0.8,1.2-1.5c0,0-0.2,0.1-0.3,0.1c-0.5,0-0.9-0.4-0.9-1
	C182.5,325.4,183,325,183.6,325z M187,333.5c0.1,0.8,0.7,1.3,1.7,1.3c0.8,0,1.2-0.4,1.2-1c0-0.4-0.3-0.8-0.9-0.9l-1.2-0.3
	c-1.1-0.2-1.8-1-1.8-2c0-1.2,1.2-2.3,2.6-2.3c2,0,2.6,1.3,2.7,1.9l-1.2,0.5c-0.1-0.4-0.4-1.2-1.5-1.2c-0.7,0-1.2,0.5-1.2,1
	c0,0.4,0.3,0.8,0.8,0.9l1.2,0.3c1.3,0.3,2,1.1,2,2.1s-0.9,2.2-2.6,2.2c-2,0-2.8-1.3-2.9-2.1L187,333.5L187,333.5z M198.6,335.8
	v-10.6h6.5v1.4h-5v3.4h4.5v1.4h-4.5v4.5L198.6,335.8L198.6,335.8z M213.2,333.7c-0.4,1.3-1.6,2.3-3.2,2.3c-1.9,0-3.6-1.4-3.6-3.9
	c0-2.3,1.6-3.8,3.4-3.8c2.2,0,3.5,1.5,3.5,3.8v0.4h-5.4c0,1.3,1,2.2,2.2,2.2s1.8-0.6,2-1.5L213.2,333.7z M211.8,331.4
	c0-1-0.7-1.8-2-1.8c-1.2,0-1.9,0.9-2,1.8H211.8z M217.6,331.7l1.9-0.3c0.4-0.1,0.6-0.3,0.6-0.5c0-0.7-0.5-1.3-1.6-1.3
	c-1,0-1.5,0.6-1.6,1.5l-1.4-0.3c0.2-1.4,1.4-2.3,3-2.3c2.2,0,3,1.2,3,2.6v3.6c0,0.6,0.1,1,0.1,1.2h-1.4c0-0.2-0.1-0.5-0.1-1
	c-0.3,0.5-1,1.2-2.3,1.2c-1.5,0-2.4-1-2.4-2.2C215.4,332.6,216.3,331.8,217.6,331.7L217.6,331.7z M220.1,332.7v-0.3l-2.2,0.3
	c-0.6,0.1-1.1,0.4-1.1,1.1c0,0.5,0.4,1,1.2,1C219.1,334.8,220.1,334.3,220.1,332.7z M226.3,328.6h1.6v1.3h-1.6v3.8c0,0.7,0.3,1,1,1
	c0.2,0,0.4,0,0.6-0.1v1.2c-0.1,0-0.5,0.1-1,0.1c-1.2,0-2-0.8-2-2.1v-4h-1.4v-1.3h0.4c0.8,0,1.1-0.5,1.1-1.1v-1.2h1.3L226.3,328.6
	L226.3,328.6z M233.1,336c-1.7,0-2.7-1.3-2.7-2.9v-4.5h1.4v4.3c0,1,0.4,1.9,1.6,1.9c1.1,0,1.7-0.8,1.7-1.8v-4.4h1.4v5.9
	c0,0.6,0,1.1,0.1,1.3h-1.4c0-0.2-0.1-0.6-0.1-0.9C234.9,335.7,234,336,233.1,336z M243.7,330h-0.6c-1.2,0-2,0.6-2,2.2v3.6h-1.4v-7.2
	h1.4v1.3c0.5-1.1,1.4-1.4,2.2-1.4h0.5L243.7,330L243.7,330z M252.2,333.7c-0.4,1.3-1.6,2.3-3.2,2.3c-1.9,0-3.6-1.4-3.6-3.9
	c0-2.3,1.6-3.8,3.4-3.8c2.2,0,3.5,1.5,3.5,3.8v0.4h-5.4c0,1.3,1,2.2,2.2,2.2s1.8-0.6,2-1.5L252.2,333.7z M250.8,331.4
	c0-1-0.7-1.8-2-1.8c-1.2,0-1.9,0.9-2,1.8H250.8z M262.9,325.1c2,0,3.2,1.2,3.2,2.9c0,1.1-0.7,2-1.6,2.3c1.2,0.3,1.9,1.4,1.9,2.6
	c0,1.7-1.3,2.9-3.3,2.9h-3.7v-10.6L262.9,325.1L262.9,325.1z M262.8,329.8c1.2,0,1.9-0.7,1.9-1.7s-0.7-1.7-1.9-1.7H261v3.4
	L262.8,329.8L262.8,329.8z M263,334.5c1.2,0,2-0.7,2-1.7s-0.6-1.7-1.9-1.7H261v3.4L263,334.5L263,334.5z M273,330h-0.6
	c-1.2,0-2,0.6-2,2.2v3.6H269v-7.2h1.4v1.3c0.5-1.1,1.4-1.4,2.2-1.4h0.5v1.5H273z M277,331.7l1.9-0.3c0.4-0.1,0.6-0.3,0.6-0.5
	c0-0.7-0.5-1.3-1.6-1.3c-1,0-1.5,0.6-1.6,1.5l-1.4-0.3c0.2-1.4,1.4-2.3,3-2.3c2.2,0,3,1.2,3,2.6v3.6c0,0.6,0.1,1,0.1,1.2h-1.4
	c0-0.2-0.1-0.5-0.1-1c-0.3,0.5-1,1.2-2.3,1.2c-1.5,0-2.4-1-2.4-2.2C274.8,332.6,275.8,331.8,277,331.7L277,331.7z M279.5,332.7v-0.3
	l-2.2,0.3c-0.6,0.1-1.1,0.4-1.1,1.1c0,0.5,0.4,1,1.2,1C278.6,334.8,279.5,334.3,279.5,332.7z M285.3,335.8h-1.4v-7.2h1.4v1
	c0.5-0.9,1.4-1.2,2.2-1.2c1.7,0,2.6,1.2,2.6,2.9v4.6h-1.4v-4.3c0-1-0.4-1.8-1.7-1.8c-1.1,0-1.7,0.9-1.7,2V335.8z M293.9,332.2
	c0,1.6,1,2.5,2.2,2.5c1.3,0,1.8-0.9,2-1.5l1.2,0.5c-0.3,1-1.4,2.2-3.3,2.2c-2.1,0-3.6-1.6-3.6-3.8c0-2.2,1.6-3.8,3.6-3.8
	c1.9,0,2.9,1.2,3.2,2.3l-1.3,0.5c-0.2-0.7-0.7-1.5-1.9-1.5C294.9,329.6,293.9,330.5,293.9,332.2L293.9,332.2z M303.1,335.8h-1.4
	v-10.9h1.4v4.5c0.5-0.8,1.4-1.1,2.2-1.1c1.7,0,2.6,1.2,2.6,2.9v4.6h-1.4v-4.3c0-1-0.4-1.8-1.7-1.8c-1.1,0-1.6,0.8-1.7,1.9V335.8
	L303.1,335.8z M507,331.9l1.5-0.3v1c0,1.4,0.8,2,1.8,2c1.1,0,1.7-0.7,1.7-1.9v-7.6h1.5v7.5c0,1.9-1.2,3.4-3.2,3.4
	c-2.1,0-3.3-1.4-3.3-3.4V331.9z M523.4,332.2c0,2.2-1.5,3.8-3.7,3.8s-3.7-1.6-3.7-3.8c0-2.2,1.5-3.8,3.7-3.8S523.4,330,523.4,332.2z
	 M521.9,332.2c0-1.7-1.1-2.6-2.2-2.6s-2.2,0.9-2.2,2.6s1,2.6,2.2,2.6S521.9,333.8,521.9,332.2z M527.3,335.8h-1.4v-10.9h1.4v4.5
	c0.5-0.8,1.4-1.1,2.2-1.1c1.7,0,2.6,1.2,2.6,2.9v4.6h-1.4v-4.3c0-1-0.4-1.8-1.7-1.8c-1.1,0-1.6,0.8-1.7,1.9L527.3,335.8L527.3,335.8
	z M536.5,335.8h-1.4v-7.2h1.4v1c0.5-0.9,1.4-1.2,2.2-1.2c1.7,0,2.6,1.2,2.6,2.9v4.6h-1.4v-4.3c0-1-0.4-1.8-1.7-1.8
	c-1.1,0-1.7,0.9-1.7,2L536.5,335.8L536.5,335.8z M544,325c0.6,0,1.1,0.5,1.1,1.3c0,1.9-1.2,2.6-2.1,2.7v-0.7
	c0.7-0.2,1.1-0.8,1.2-1.5c0,0-0.2,0.1-0.3,0.1c-0.5,0-0.9-0.4-0.9-1C542.9,325.4,543.4,325,544,325z M547.4,333.5
	c0.1,0.8,0.7,1.3,1.7,1.3c0.8,0,1.2-0.4,1.2-1c0-0.4-0.3-0.8-0.9-0.9l-1.2-0.3c-1.1-0.2-1.8-1-1.8-2c0-1.2,1.2-2.3,2.6-2.3
	c2,0,2.6,1.3,2.7,1.9l-1.2,0.5c-0.1-0.4-0.4-1.2-1.5-1.2c-0.7,0-1.2,0.5-1.2,1c0,0.4,0.3,0.8,0.8,0.9l1.2,0.3c1.3,0.3,2,1.1,2,2.1
	s-0.9,2.2-2.6,2.2c-2,0-2.8-1.3-2.9-2.1L547.4,333.5L547.4,333.5z M601.1,325.1c2,0,3.2,1.2,3.2,2.9c0,1.1-0.7,2-1.6,2.3
	c1.2,0.3,1.9,1.4,1.9,2.6c0,1.7-1.3,2.9-3.3,2.9h-3.7v-10.6L601.1,325.1L601.1,325.1z M600.9,329.8c1.2,0,1.9-0.7,1.9-1.7
	s-0.7-1.7-1.9-1.7h-1.8v3.4L600.9,329.8L600.9,329.8z M601.1,334.5c1.2,0,2-0.7,2-1.7s-0.6-1.7-1.9-1.7h-2.1v3.4L601.1,334.5
	L601.1,334.5z M611.2,330h-0.6c-1.2,0-2,0.6-2,2.2v3.6h-1.4v-7.2h1.4v1.3c0.5-1.1,1.4-1.4,2.2-1.4h0.5v1.5H611.2z M615.2,331.7
	l1.9-0.3c0.4-0.1,0.6-0.3,0.6-0.5c0-0.7-0.5-1.3-1.6-1.3c-1,0-1.5,0.6-1.6,1.5l-1.4-0.3c0.2-1.4,1.4-2.3,3-2.3c2.2,0,3,1.2,3,2.6
	v3.6c0,0.6,0.1,1,0.1,1.2h-1.4c0-0.2-0.1-0.5-0.1-1c-0.3,0.5-1,1.2-2.3,1.2c-1.5,0-2.4-1-2.4-2.2C613,332.6,613.9,331.8,615.2,331.7
	L615.2,331.7z M617.7,332.7v-0.3l-2.2,0.3c-0.6,0.1-1.1,0.4-1.1,1.1c0,0.5,0.4,1,1.2,1C616.8,334.8,617.7,334.3,617.7,332.7z
	 M623.4,335.8H622v-7.2h1.4v1c0.5-0.9,1.4-1.2,2.2-1.2c1.7,0,2.6,1.2,2.6,2.9v4.6h-1.4v-4.3c0-1-0.4-1.8-1.7-1.8
	c-1.1,0-1.7,0.9-1.7,2L623.4,335.8L623.4,335.8z M632.1,332.2c0,1.6,1,2.5,2.2,2.5c1.3,0,1.8-0.9,2-1.5l1.2,0.5
	c-0.3,1-1.4,2.2-3.3,2.2c-2.1,0-3.6-1.6-3.6-3.8c0-2.2,1.6-3.8,3.6-3.8c1.9,0,2.9,1.2,3.2,2.3l-1.3,0.5c-0.2-0.7-0.7-1.5-1.9-1.5
	C633.1,329.6,632.1,330.5,632.1,332.2L632.1,332.2z M641.3,335.8h-1.4v-10.9h1.4v4.5c0.5-0.8,1.4-1.1,2.2-1.1c1.7,0,2.6,1.2,2.6,2.9
	v4.6h-1.4v-4.3c0-1-0.4-1.8-1.7-1.8c-1.1,0-1.6,0.8-1.7,1.9L641.3,335.8L641.3,335.8z M48.8,19.9v-8.3l-3.6,8.3h-1.3l-3.6-8.3v8.3
	h-1.5V9.3h2l3.7,8.7l3.8-8.7h2v10.6C50.3,19.9,48.8,19.9,48.8,19.9z M55.3,15.8l1.9-0.3c0.4-0.1,0.6-0.3,0.6-0.5
	c0-0.7-0.5-1.3-1.6-1.3c-1,0-1.5,0.6-1.6,1.5l-1.4-0.3c0.2-1.4,1.4-2.3,3-2.3c2.2,0,3,1.2,3,2.6v3.6c0,0.6,0.1,1,0.1,1.2h-1.4
	c0-0.2-0.1-0.5-0.1-1c-0.3,0.5-1,1.2-2.3,1.2c-1.5,0-2.4-1-2.4-2.2C53.1,16.7,54,16,55.3,15.8z M57.8,16.8v-0.3l-2.2,0.3
	c-0.6,0.1-1,0.4-1,1.1c0,0.5,0.4,1,1.2,1C56.8,19,57.8,18.4,57.8,16.8z M66.1,14.1h-0.6c-1.2,0-2,0.6-2,2.2v3.6h-1.4v-7.2h1.4V14
	c0.5-1.1,1.4-1.4,2.2-1.4h0.5L66.1,14.1L66.1,14.1z M68.8,22.9l1.8-3.8l-3.1-6.4h1.6l2.2,5l2.2-5H75l-4.7,10.2H68.8z M77.6,9.1
	c0.6,0,1.1,0.5,1.1,1.3c0,1.9-1.2,2.6-2.1,2.7v-0.7c0.7-0.2,1.1-0.8,1.2-1.5c0,0-0.2,0.1-0.3,0.1c-0.5,0-0.9-0.4-0.9-1
	C76.6,9.6,77,9.1,77.6,9.1z M81.1,17.6c0.1,0.8,0.7,1.3,1.7,1.3c0.8,0,1.2-0.4,1.2-1c0-0.4-0.3-0.8-0.9-0.9l-1.2-0.3
	c-1.1-0.2-1.8-1-1.8-2c0-1.2,1.2-2.3,2.6-2.3c2,0,2.6,1.3,2.7,1.9l-1.2,0.5c-0.1-0.4-0.4-1.2-1.5-1.2c-0.7,0-1.2,0.5-1.2,1
	c0,0.4,0.3,0.8,0.8,0.9l1.2,0.3c1.3,0.3,2,1.1,2,2.1s-0.9,2.2-2.6,2.2c-2,0-2.8-1.3-2.9-2.1C80,18,81.1,17.6,81.1,17.6z M10.4,27.3
	c2,0,3.2,1.2,3.2,2.9c0,1.1-0.7,2-1.6,2.3c1.2,0.3,1.9,1.4,1.9,2.6c0,1.7-1.3,2.9-3.3,2.9H6.9V27.3C6.9,27.3,10.4,27.3,10.4,27.3z
	 M10.2,31.9c1.2,0,1.9-0.7,1.9-1.7s-0.7-1.7-1.9-1.7H8.4v3.4C8.4,31.9,10.2,31.9,10.2,31.9z M10.4,36.6c1.2,0,2-0.7,2-1.7
	s-0.6-1.7-1.9-1.7H8.4v3.4H10.4z M17.2,26.9c0.6,0,1,0.4,1,1s-0.4,1-1,1s-1-0.5-1-1S16.7,26.9,17.2,26.9z M16.5,37.9v-7.2h1.4v7.2
	H16.5z M23,30.7h1.6V32H23v3.8c0,0.7,0.3,1,1,1c0.2,0,0.4,0,0.6-0.1v1.2c-0.1,0-0.5,0.1-1,0.1c-1.2,0-2-0.8-2-2.1v-4h-1.4v-1.3h0.4
	c0.8,0,1.1-0.5,1.1-1.1v-1.2H23V30.7z M27.2,37.9V27.1h1.4v4.7c0.3-0.6,1.2-1.2,2.4-1.2c2.2,0,3.3,1.7,3.3,3.8s-1.2,3.8-3.4,3.8
	c-1.1,0-1.9-0.5-2.3-1.2v1L27.2,37.9L27.2,37.9z M30.7,31.7c-1.2,0-2.1,1-2.1,2.5c0,1.6,0.9,2.6,2.1,2.6c1.3,0,2.1-1,2.1-2.6
	C32.8,32.7,32,31.7,30.7,31.7z M39.4,38.1c-1.7,0-2.7-1.3-2.7-2.9v-4.5h1.4V35c0,1,0.4,1.9,1.6,1.9c1.1,0,1.7-0.8,1.7-1.8v-4.4h1.4
	v5.9c0,0.6,0,1.1,0.1,1.3h-1.4c0-0.2-0.1-0.6-0.1-0.9C41.1,37.8,40.2,38.1,39.4,38.1z M46.7,34.3c0,1.6,1,2.5,2.2,2.5
	c1.3,0,1.8-0.9,2-1.5l1.2,0.5c-0.3,1-1.4,2.2-3.3,2.2c-2.1,0-3.6-1.6-3.6-3.8s1.6-3.8,3.6-3.8c1.9,0,2.9,1.2,3.2,2.3l-1.3,0.5
	c-0.2-0.7-0.7-1.5-1.9-1.5C47.8,31.8,46.7,32.6,46.7,34.3z M58,33.7l3.1,4.2h-1.8L57,34.7l-1,1v2.2h-1.4V27.1H56v6.8l3.1-3.2H61
	L58,33.7z M69.1,35.9c-0.4,1.3-1.6,2.3-3.2,2.3c-1.9,0-3.6-1.4-3.6-3.9c0-2.3,1.6-3.8,3.4-3.8c2.2,0,3.5,1.5,3.5,3.8v0.4h-5.4
	c0,1.3,1,2.2,2.2,2.2s1.8-0.6,2-1.5L69.1,35.9z M67.7,33.6c0-1-0.7-1.8-2-1.8c-1.2,0-1.9,0.9-2,1.8H67.7z M73.6,30.7h1.6V32h-1.6
	v3.8c0,0.7,0.3,1,1,1c0.2,0,0.4,0,0.6-0.1v1.2c-0.1,0-0.5,0.1-1,0.1c-1.2,0-2-0.8-2-2.1v-4h-1.4v-1.3h0.4c0.8,0,1.1-0.5,1.1-1.1
	v-1.2h1.3C73.6,28.3,73.6,30.7,73.6,30.7z M85.5,33.6h-1.6v4.3h-1.5V27.3h4c2,0,3.3,1.4,3.3,3.2c0,1.5-1,2.7-2.6,3l2.5,4.5H88
	C88,38,85.5,33.6,85.5,33.6z M86.2,32.2c1.2,0,2-0.7,2-1.8s-0.8-1.8-2-1.8H84v3.6H86.2z M98.3,35.9c-0.4,1.3-1.6,2.3-3.2,2.3
	c-1.9,0-3.6-1.4-3.6-3.9c0-2.3,1.6-3.8,3.4-3.8c2.2,0,3.5,1.5,3.5,3.8v0.4H93c0,1.3,1,2.2,2.2,2.2s1.8-0.6,2-1.5L98.3,35.9z
	 M96.9,33.6c0-1-0.7-1.8-2-1.8c-1.2,0-1.9,0.9-2,1.8H96.9z M100.9,40.8V30.7h1.4v1.1c0.4-0.7,1.2-1.3,2.4-1.3c2.2,0,3.3,1.7,3.3,3.8
	s-1.2,3.8-3.4,3.8c-1.1,0-1.9-0.5-2.3-1.2v3.8h-1.4V40.8z M104.4,31.8c-1.3,0-2.1,1.1-2.1,2.5c0,1.5,0.9,2.5,2.1,2.5
	c1.3,0,2.1-1.1,2.1-2.5C106.6,32.9,105.8,31.8,104.4,31.8z M117.3,34.3c0,2.2-1.5,3.8-3.7,3.8s-3.7-1.6-3.7-3.8s1.5-3.8,3.7-3.8
	S117.3,32.1,117.3,34.3z M115.9,34.3c0-1.7-1.1-2.6-2.2-2.6s-2.2,0.9-2.2,2.6s1.1,2.6,2.2,2.6S115.9,36,115.9,34.3z M715.7,16.1
	l1.5-0.3v1c0,1.4,0.8,2,1.8,2c1.1,0,1.7-0.7,1.7-1.9V9.3h1.5v7.5c0,1.9-1.2,3.4-3.2,3.4c-2.1,0-3.3-1.4-3.3-3.4V16.1z M732.1,16.3
	c0,2.2-1.5,3.8-3.7,3.8s-3.7-1.6-3.7-3.8s1.5-3.8,3.7-3.8S732.1,14.1,732.1,16.3z M730.6,16.3c0-1.7-1.1-2.6-2.2-2.6
	s-2.2,0.9-2.2,2.6s1.1,2.6,2.2,2.6S730.6,18,730.6,16.3z M736,19.9h-1.4V9.1h1.4v4.5c0.5-0.8,1.4-1.1,2.2-1.1c1.7,0,2.6,1.2,2.6,2.9
	V20h-1.4v-4.3c0-1-0.4-1.8-1.7-1.8c-1.1,0-1.6,0.8-1.7,1.9L736,19.9L736,19.9z M745.2,19.9h-1.4v-7.2h1.4v1c0.5-0.9,1.4-1.2,2.2-1.2
	c1.7,0,2.6,1.2,2.6,2.9V20h-1.4v-4.3c0-1-0.4-1.8-1.7-1.8c-1.1,0-1.7,0.9-1.7,2L745.2,19.9L745.2,19.9z M752.7,9.1
	c0.6,0,1.1,0.5,1.1,1.3c0,1.9-1.2,2.6-2.1,2.7v-0.7c0.7-0.2,1.1-0.8,1.2-1.5c0,0-0.2,0.1-0.3,0.1c-0.5,0-0.9-0.4-0.9-1
	C751.6,9.6,752.1,9.1,752.7,9.1z M756.1,17.6c0.1,0.8,0.7,1.3,1.7,1.3c0.8,0,1.2-0.4,1.2-1c0-0.4-0.3-0.8-0.9-0.9l-1.2-0.3
	c-1.1-0.2-1.8-1-1.8-2c0-1.2,1.2-2.3,2.6-2.3c2,0,2.6,1.3,2.7,1.9l-1.2,0.5c-0.1-0.4-0.4-1.2-1.5-1.2c-0.7,0-1.2,0.5-1.2,1
	c0,0.4,0.3,0.8,0.8,0.9l1.2,0.3c1.3,0.3,2,1.1,2,2.1s-0.9,2.2-2.6,2.2c-2,0-2.8-1.3-2.9-2.1L756.1,17.6L756.1,17.6z M686.9,27.3
	c2,0,3.2,1.2,3.2,2.9c0,1.1-0.7,2-1.6,2.3c1.2,0.3,1.9,1.4,1.9,2.6c0,1.7-1.3,2.9-3.3,2.9h-3.7V27.3H686.9L686.9,27.3z M686.7,31.9
	c1.2,0,1.9-0.7,1.9-1.7s-0.7-1.7-1.9-1.7h-1.8v3.4C684.9,31.9,686.7,31.9,686.7,31.9z M686.9,36.6c1.2,0,2-0.7,2-1.7
	s-0.6-1.7-1.9-1.7h-2.1v3.4H686.9z M693.7,26.9c0.6,0,1,0.4,1,1s-0.4,1-1,1s-1-0.5-1-1S693.2,26.9,693.7,26.9z M693,37.9v-7.2h1.4
	v7.2H693z M699.5,30.7h1.6V32h-1.6v3.8c0,0.7,0.3,1,1,1c0.2,0,0.4,0,0.6-0.1v1.2c-0.1,0-0.5,0.1-1,0.1c-1.2,0-2-0.8-2-2.1v-4h-1.4
	v-1.3h0.4c0.8,0,1.1-0.5,1.1-1.1v-1.2h1.3L699.5,30.7L699.5,30.7z M703.7,37.9V27.1h1.4v4.7c0.3-0.6,1.2-1.2,2.4-1.2
	c2.2,0,3.3,1.7,3.3,3.8s-1.2,3.8-3.4,3.8c-1.1,0-1.9-0.5-2.3-1.2v1L703.7,37.9L703.7,37.9z M707.2,31.7c-1.2,0-2.1,1-2.1,2.5
	c0,1.6,0.9,2.6,2.1,2.6c1.3,0,2.1-1,2.1-2.6C709.3,32.7,708.5,31.7,707.2,31.7z M715.9,38.1c-1.7,0-2.7-1.3-2.7-2.9v-4.5h1.4V35
	c0,1,0.4,1.9,1.6,1.9c1.1,0,1.7-0.8,1.7-1.8v-4.4h1.4v5.9c0,0.6,0,1.1,0.1,1.3H718c0-0.2-0.1-0.6-0.1-0.9
	C717.6,37.8,716.7,38.1,715.9,38.1z M723.2,34.3c0,1.6,1,2.5,2.2,2.5c1.3,0,1.8-0.9,2-1.5l1.2,0.5c-0.3,1-1.4,2.2-3.3,2.2
	c-2.1,0-3.6-1.6-3.6-3.8s1.6-3.8,3.6-3.8c1.9,0,2.9,1.2,3.2,2.3l-1.3,0.5c-0.2-0.7-0.7-1.5-1.9-1.5
	C724.3,31.8,723.2,32.6,723.2,34.3L723.2,34.3z M734.5,33.7l3.1,4.2h-1.8l-2.4-3.2l-1,1v2.2H731V27.1h1.4v6.8l3.1-3.2h1.9
	L734.5,33.7L734.5,33.7z M745.6,35.9c-0.4,1.3-1.6,2.3-3.2,2.3c-1.9,0-3.6-1.4-3.6-3.9c0-2.3,1.6-3.8,3.4-3.8c2.2,0,3.5,1.5,3.5,3.8
	v0.4h-5.4c0,1.3,1,2.2,2.2,2.2s1.8-0.6,2-1.5L745.6,35.9z M744.2,33.6c0-1-0.7-1.8-2-1.8c-1.2,0-1.9,0.9-2,1.8H744.2z M750.1,30.7
	h1.6V32h-1.6v3.8c0,0.7,0.3,1,1,1c0.2,0,0.4,0,0.6-0.1v1.2c-0.1,0-0.5,0.1-1,0.1c-1.2,0-2-0.8-2-2.1v-4h-1.4v-1.3h0.4
	c0.8,0,1.1-0.5,1.1-1.1v-1.2h1.3L750.1,30.7L750.1,30.7z M762,33.6h-1.6v4.3H759V27.3h4c2,0,3.3,1.4,3.3,3.2c0,1.5-1,2.7-2.6,3
	l2.5,4.5h-1.7C764.5,38,762,33.6,762,33.6z M762.7,32.2c1.2,0,2-0.7,2-1.8s-0.8-1.8-2-1.8h-2.2v3.6H762.7z M774.8,35.9
	c-0.4,1.3-1.6,2.3-3.2,2.3c-1.9,0-3.6-1.4-3.6-3.9c0-2.3,1.6-3.8,3.4-3.8c2.2,0,3.5,1.5,3.5,3.8v0.4h-5.4c0,1.3,1,2.2,2.2,2.2
	s1.8-0.6,2-1.5L774.8,35.9z M773.4,33.6c0-1-0.7-1.8-2-1.8c-1.2,0-1.9,0.9-2,1.8H773.4z M777.4,40.8V30.7h1.4v1.1
	c0.4-0.7,1.2-1.3,2.4-1.3c2.2,0,3.3,1.7,3.3,3.8s-1.2,3.8-3.4,3.8c-1.1,0-1.9-0.5-2.3-1.2v3.8h-1.4V40.8z M780.9,31.8
	c-1.3,0-2.1,1.1-2.1,2.5c0,1.5,0.9,2.5,2.1,2.5c1.3,0,2.1-1.1,2.1-2.5C783.1,32.9,782.3,31.8,780.9,31.8z M793.8,34.3
	c0,2.2-1.5,3.8-3.7,3.8s-3.7-1.6-3.7-3.8s1.5-3.8,3.7-3.8S793.8,32.1,793.8,34.3z M792.4,34.3c0-1.7-1.1-2.6-2.2-2.6
	s-2.2,0.9-2.2,2.6s1.1,2.6,2.2,2.6S792.4,36,792.4,34.3z"/>
<g>
	<path class="st8" d="M559.8,335.2v-10h2l2.4,7.1c0.2,0.7,0.4,1.2,0.5,1.5c0.1-0.4,0.3-0.9,0.5-1.6l2.4-7h1.8v10h-1.3v-8.4l-2.9,8.4
		H564l-2.9-8.5v8.5H559.8z"/>
	<path class="st8" d="M576.8,334.3c-0.5,0.4-0.9,0.7-1.3,0.8c-0.4,0.2-0.9,0.2-1.4,0.2c-0.8,0-1.4-0.2-1.8-0.6s-0.6-0.9-0.6-1.5
		c0-0.4,0.1-0.7,0.2-1c0.2-0.3,0.4-0.5,0.6-0.7c0.3-0.2,0.6-0.3,0.9-0.4c0.2-0.1,0.6-0.1,1.1-0.2c1-0.1,1.7-0.3,2.2-0.4
		c0-0.2,0-0.3,0-0.3c0-0.5-0.1-0.9-0.3-1.1c-0.3-0.3-0.8-0.4-1.4-0.4s-1,0.1-1.3,0.3c-0.3,0.2-0.5,0.6-0.6,1.1l-1.2-0.2
		c0.1-0.5,0.3-0.9,0.5-1.2c0.3-0.3,0.6-0.6,1.1-0.7c0.5-0.2,1-0.3,1.6-0.3c0.6,0,1.1,0.1,1.5,0.2s0.7,0.3,0.9,0.6
		c0.2,0.2,0.3,0.5,0.4,0.8c0,0.2,0.1,0.6,0.1,1.1v1.6c0,1.1,0,1.9,0.1,2.2c0.1,0.3,0.2,0.6,0.3,0.9h-1.3
		C576.9,335,576.8,334.7,576.8,334.3z M576.7,331.6c-0.4,0.2-1.1,0.3-2,0.5c-0.5,0.1-0.9,0.2-1.1,0.2s-0.4,0.2-0.5,0.4
		s-0.2,0.4-0.2,0.6c0,0.3,0.1,0.6,0.4,0.8c0.2,0.2,0.6,0.3,1.1,0.3s0.9-0.1,1.3-0.3c0.4-0.2,0.6-0.5,0.8-0.9
		c0.1-0.3,0.2-0.7,0.2-1.2V331.6L576.7,331.6z"/>
	<path class="st8" d="M580.5,326.6v-1.4h1.2v1.4H580.5z M580.5,335.2v-7.3h1.2v7.3H580.5z"/>
	<path class="st8" d="M584.3,335.2v-7.3h1.1v1c0.5-0.8,1.3-1.2,2.3-1.2c0.4,0,0.8,0.1,1.2,0.2c0.4,0.2,0.6,0.4,0.8,0.6
		c0.2,0.2,0.3,0.6,0.4,0.9c0,0.2,0.1,0.6,0.1,1.2v4.5H589v-4.4c0-0.5,0-0.9-0.1-1.1s-0.3-0.4-0.5-0.6c-0.2-0.1-0.5-0.2-0.9-0.2
		c-0.5,0-1,0.2-1.4,0.5s-0.6,1-0.6,1.9v4H584.3z"/>
</g>
</svg>
